<?xml version="1.0" encoding="utf-8"?>
<svg width="800px" height="800px" viewBox="0 0 16 16" fill="none" xmlns="http://www.w3.org/2000/svg">
  <defs/>
  <path fill-rule="evenodd" clip-rule="evenodd" d="M8 16C12.4183 16 16 12.4183 16 8C16 3.58172 12.4183 0 8 0C3.58172 0 0 3.58172 0 8C0 12.4183 3.58172 16 8 16ZM8 9C8.55229 9 9 8.55229 9 8C9 7.44772 8.55229 7 8 7C7.44772 7 7 7.44772 7 8C7 8.55229 7.44772 9 8 9ZM5 8C5 8.55229 4.55228 9 4 9C3.44772 9 3 8.55229 3 8C3 7.44772 3.44772 7 4 7C4.55228 7 5 7.44772 5 8ZM12 9C12.5523 9 13 8.55229 13 8C13 7.44772 12.5523 7 12 7C11.4477 7 11 7.44772 11 8C11 8.55229 11.4477 9 12 9Z" fill="#000000"/>
  <ellipse style="fill: rgb(216, 216, 216); stroke: rgb(0, 0, 0);" cx="4.115" cy="7.924" rx="1.3" ry="1.285"/>
  <ellipse style="fill: rgb(216, 216, 216); stroke: rgb(0, 0, 0);" cx="4.329" cy="8.359" rx="1.667" ry="1.621"/>
  <ellipse style="fill: rgb(216, 216, 216); stroke: rgb(0, 0, 0);" cx="4.528" cy="8.144" rx="1.744" ry="1.591"/>
  <rect x="3.885" y="7.441" width="1.621" height="1.744" style="fill: rgb(216, 216, 216); stroke: rgb(0, 0, 0);"/>
  <rect x="2.967" y="6.707" width="2.08" height="2.233" style="fill: rgb(216, 216, 216); stroke: rgb(0, 0, 0);"/>
  <rect x="3.12" y="6.86" width="1.071" height="0.948" style="fill: rgb(216, 216, 216); stroke: rgb(0, 0, 0);"/>
  <rect x="3.61" y="8.053" width="0.52" height="0.489" style="fill: rgb(216, 216, 216); stroke: rgb(0, 0, 0);"/>
  <rect x="11.686" y="7.349" width="0.795" height="0.398" style="fill: rgb(216, 216, 216); stroke: rgb(0, 0, 0);"/>
  <rect x="11.717" y="8.206" width="0.704" height="0.489" style="fill: rgb(216, 216, 216); stroke: rgb(0, 0, 0);"/>
  <rect x="12.635" y="8.236" width="0.765" height="0.489" style="fill: rgb(216, 216, 216); stroke: rgb(0, 0, 0);"/>
  <rect x="11.197" y="7.777" width="0.612" height="0.765" style="fill: rgb(216, 216, 216); stroke: rgb(0, 0, 0);"/>
  <rect x="11.075" y="7.594" width="0.489" height="0.306" style="fill: rgb(216, 216, 216); stroke: rgb(0, 0, 0);"/>
</svg>